<?xml version="1.0" encoding="UTF-8" standalone="no"?>
<!-- Created with Inkscape (http://www.inkscape.org/) -->

<svg
   xmlns:dc="http://purl.org/dc/elements/1.1/"
   xmlns:cc="http://creativecommons.org/ns#"
   xmlns:rdf="http://www.w3.org/1999/02/22-rdf-syntax-ns#"
   xmlns:svg="http://www.w3.org/2000/svg"
   xmlns="http://www.w3.org/2000/svg"
   xmlns:sodipodi="http://sodipodi.sourceforge.net/DTD/sodipodi-0.dtd"
   xmlns:inkscape="http://www.inkscape.org/namespaces/inkscape"
   width="256"
   height="256"
   viewBox="0 0 256 256.00001"
   id="svg2"
   version="1.1"
   inkscape:version="0.91 r13725"
   sodipodi:docname="8x-logo-var5.svg"
   inkscape:export-filename="/Users/Thomas/Code/8x-graphics/public/grafics/8x-logo-var5.png"
   inkscape:export-xdpi="299"
   inkscape:export-ydpi="299">
  <defs
     id="defs4" />
  <sodipodi:namedview
     id="base"
     pagecolor="#5fe7d7"
     bordercolor="#666666"
     borderopacity="1.0"
     inkscape:pageopacity="0"
     inkscape:pageshadow="2"
     inkscape:zoom="2.1757812"
     inkscape:cx="130.46339"
     inkscape:cy="128.06491"
     inkscape:document-units="px"
     inkscape:current-layer="layer1"
     showgrid="false"
     units="px"
     inkscape:snap-bbox="true"
     inkscape:bbox-nodes="true"
     inkscape:snap-page="true"
     inkscape:window-width="1440"
     inkscape:window-height="768"
     inkscape:window-x="0"
     inkscape:window-y="1"
     inkscape:window-maximized="1"
     inkscape:snap-global="false"
     showguides="false" />
  <metadata
     id="metadata7">
    <rdf:RDF>
      <cc:Work
         rdf:about="">
        <dc:format>image/svg+xml</dc:format>
        <dc:type
           rdf:resource="http://purl.org/dc/dcmitype/StillImage" />
        <dc:title />
      </cc:Work>
    </rdf:RDF>
  </metadata>
  <g
     inkscape:label="Ebene 1"
     inkscape:groupmode="layer"
     id="layer1"
     transform="translate(0,-796.36237)">
    <path
       style="opacity:1;fill:#000000;fill-opacity:1;stroke:none;stroke-width:2.94676399;stroke-linejoin:miter;stroke-miterlimit:4;stroke-dasharray:none;stroke-dashoffset:0;stroke-opacity:1"
       d="M 127.99999,798.63385 A 125.72859,125.72859 0 0 0 2.27148,924.36237 125.72859,125.72859 0 0 0 127.99999,1050.0909 125.72859,125.72859 0 0 0 253.72852,924.36237 125.72859,125.72859 0 0 0 127.99999,798.63385 Z"
       id="path4136"
       inkscape:connector-curvature="0" />
    <g
       style="font-style:normal;font-variant:normal;font-weight:bold;font-stretch:normal;font-size:143.13555908px;line-height:125%;font-family:Futura;-inkscape-font-specification:'Futura Bold';letter-spacing:1.13433611px;word-spacing:0.03343752px;fill:#000000;fill-opacity:1;stroke:none;stroke-width:1px;stroke-linecap:butt;stroke-linejoin:miter;stroke-opacity:1"
       id="text4138" />
    <text
       xml:space="preserve"
       style="font-style:italic;font-variant:normal;font-weight:bold;font-stretch:normal;font-size:30px;line-height:125%;font-family:Zapfino;-inkscape-font-specification:'Zapfino Bold Italic';letter-spacing:5.63000011px;word-spacing:0px;fill:#000000;fill-opacity:1;stroke:none;stroke-width:1px;stroke-linecap:butt;stroke-linejoin:miter;stroke-opacity:1"
       x="-163.52563"
       y="566.85608"
       id="text4142"
       sodipodi:linespacing="125%"><tspan
         sodipodi:role="line"
         id="tspan4144"
         x="-163.52563"
         y="566.85608">X</tspan></text>
    <g
       style="font-style:normal;font-variant:normal;font-weight:200;font-stretch:normal;font-size:123.19865417px;line-height:125%;font-family:'Helvetica Neue';-inkscape-font-specification:'Helvetica Neue Ultra-Light';letter-spacing:13.63000107px;word-spacing:0px;fill:#ffffff;fill-opacity:1;stroke:none;stroke-width:1px;stroke-linecap:butt;stroke-linejoin:miter;stroke-opacity:1"
       id="text4281"
       transform="matrix(1.1651355,0,0,1.1651355,-24.120098,-152.64505)">
      <path
         d="m 93.396501,966.11034 q -5.835092,0 -10.64754,-1.68436 -4.752292,-1.74451 -8.18116,-4.75229 -3.428869,-3.00778 -5.293693,-7.09836 -1.864823,-4.15074 -1.864823,-8.96319 0,-4.45151 1.263268,-7.88038 1.263267,-3.42887 3.368713,-5.9554 2.165601,-2.52654 4.992914,-4.15074 2.887468,-1.68436 6.075715,-2.46638 l 0,-0.24062 q -3.00778,-1.02265 -5.59447,-2.76716 -2.526535,-1.74451 -4.451514,-4.15073 -1.864824,-2.46638 -2.947624,-5.53432 -1.022645,-3.12809 -1.022645,-6.85774 0,-5.11322 2.04529,-9.02333 2.04529,-3.91012 5.414003,-6.55696 3.428869,-2.70701 7.760072,-4.03043 4.391358,-1.38358 9.083494,-1.38358 4.692136,0 9.023339,1.38358 4.39136,1.32342 7.76007,4.03043 3.42887,2.64684 5.47416,6.55696 2.04529,3.91011 2.04529,9.02333 0,3.72965 -1.20311,6.85774 -1.14296,3.06794 -3.12809,5.53432 -1.98514,2.40622 -4.63198,4.15073 -2.64685,1.74451 -5.65463,2.76716 l 0,0.24062 q 3.18825,0.78202 6.13587,2.46638 2.94763,1.6242 5.17338,4.15074 2.28592,2.52653 3.60934,5.9554 1.38358,3.42887 1.38358,7.88038 0,4.81245 -1.86483,8.96319 -1.86482,4.09058 -5.29369,7.09836 -3.42887,3.00778 -8.24131,4.75229 -4.752296,1.68436 -10.587389,1.68436 z m 0,-75.55543 q -3.128091,0 -5.835092,0.90233 -2.646846,0.84218 -4.631981,2.58669 -1.924979,1.68436 -3.00778,4.15074 -1.0828,2.46638 -1.0828,5.71478 0,6.13587 3.789802,9.98583 3.849958,3.84996 10.767851,5.23354 6.917889,-1.38358 10.707699,-5.23354 3.84995,-3.84996 3.84995,-9.98583 0,-3.2484 -1.0828,-5.71478 -1.0828,-2.46638 -3.06793,-4.15074 -1.92498,-1.74451 -4.571826,-2.58669 -2.646846,-0.90233 -5.835093,-0.90233 z m 0,36.81522 q -3.368713,0.36094 -6.316337,1.50389 -2.947624,1.0828 -5.173381,3.06794 -2.225757,1.92498 -3.489024,4.75229 -1.263268,2.82731 -1.263268,6.61712 0,3.42886 1.203112,6.19602 1.263267,2.76716 3.428869,4.69214 2.165601,1.92498 5.113225,2.94762 3.00778,1.02265 6.496804,1.02265 3.54918,0 6.496804,-1.02265 3.007775,-1.02264 5.173385,-2.94762 2.1656,-1.92498 3.36871,-4.69214 1.20311,-2.76716 1.20311,-6.19602 0,-3.78981 -1.26327,-6.61712 -1.26326,-2.82731 -3.48902,-4.75229 -2.22576,-1.98514 -5.173382,-3.06794 -2.947624,-1.14295 -6.316337,-1.50389 z"
         style="font-style:normal;font-variant:normal;font-weight:normal;font-stretch:normal;font-family:Corbel;-inkscape-font-specification:Corbel;letter-spacing:13.63000107px"
         id="path4306"
         inkscape:connector-curvature="0" />
      <path
         d="m 167.12194,929.47558 15.52015,-22.01695 10.2866,0 -20.87399,28.27313 21.65602,28.87469 -10.10614,0 -16.72326,-22.85913 -0.24062,0 -16.48263,22.85913 -10.10614,0 21.65601,-29.11531 -20.87399,-28.03251 10.28661,0 15.76076,22.01695 0.24062,0 z"
         style="font-style:normal;font-variant:normal;font-weight:normal;font-stretch:normal;font-family:Corbel;-inkscape-font-specification:Corbel;letter-spacing:13.63000107px"
         id="path4308"
         inkscape:connector-curvature="0" />
    </g>
  </g>
</svg>
