<?xml version="1.0" encoding="utf-8"?>
<!-- Generator: Adobe Illustrator 16.0.0, SVG Export Plug-In . SVG Version: 6.00 Build 0)  -->
<!DOCTYPE svg PUBLIC "-//W3C//DTD SVG 1.1//EN" "http://www.w3.org/Graphics/SVG/1.1/DTD/svg11.dtd">
<svg version="1.1" id="Ebene_1" xmlns="http://www.w3.org/2000/svg" xmlns:xlink="http://www.w3.org/1999/xlink" x="0px" y="0px"
	 width="340.16px" height="340.16px" viewBox="0 0 340.16 340.16" enable-background="new 0 0 340.16 340.16" xml:space="preserve">
<circle fill-rule="evenodd" clip-rule="evenodd" cx="170.5" cy="169.78" r="168.5"/>
<g>
	<path fill="#FFFFFF" stroke="#000000" stroke-width="12" stroke-miterlimit="10" d="M207.531,142.909
		c22.677-20.116,23.383-57.121,1.478-79.091c-22.416-22.477-58.757-21.505-79.912,2.275c-21.275,23.918-16.705,58.939,3.742,76.845
		c3.383-3.401,6.764-6.8,10.145-10.197c-20.264-19.066-14.189-47.714,0.806-60.432c15.681-13.301,38.698-12.901,53.732,1.042
		c14.783,13.708,18.879,40.94-0.306,59.32C200.615,136.045,204.018,139.422,207.531,142.909z M197.145,207.598
		c18.211,17.49,16.168,43.846,0.994,58.604c-15.321,14.901-39.194,15.315-55.029,1.026c-16.05-14.482-18.741-41.99-0.218-59.558
		c-3.44-3.414-6.884-6.829-10.333-10.253c-21.486,19.456-24.153,55.324-1.922,78.345c22.059,22.845,58.623,22.309,79.901-1.021
		c21.713-23.806,17.569-59.204-3.044-77.385C204.08,200.735,200.674,204.107,197.145,207.598z M170.156,160.021
		c-5.744-5.77-11.047-11.096-16.219-16.292c-3.412,3.353-6.828,6.71-10.717,10.533c5.417,5.193,10.882,10.433,16.703,16.015
		c-5.732,5.515-11.151,10.732-16.563,15.938c3.662,3.615,7.08,6.989,10.901,10.762c5.159-5.331,10.43-10.774,15.849-16.373
		c5.529,5.587,10.812,10.926,15.974,16.143c3.614-3.544,7.042-6.908,10.899-10.691c-5.465-5.237-10.937-10.48-16.702-16.006
		c5.732-5.555,11.128-10.784,16.512-16.003c-3.67-3.6-7.091-6.955-10.551-10.35C181.116,148.898,175.845,154.247,170.156,160.021z"
		/>
	<path fill-rule="evenodd" clip-rule="evenodd" fill="#FFFFFF" stroke="#000000" stroke-width="12" stroke-miterlimit="10" d="
		M207.531,142.909c-3.514-3.487-6.916-6.864-10.315-10.238c19.185-18.379,15.089-45.612,0.306-59.32
		c-15.034-13.943-38.051-14.343-53.732-1.042c-14.995,12.717-21.07,41.365-0.806,60.432c-3.38,3.397-6.761,6.796-10.145,10.197
		c-20.447-17.906-25.017-52.926-3.742-76.845c21.154-23.78,57.496-24.752,79.912-2.275
		C230.914,85.788,230.208,122.793,207.531,142.909z"/>
	<path fill-rule="evenodd" clip-rule="evenodd" fill="#FFFFFF" stroke="#000000" stroke-width="12" stroke-miterlimit="10" d="
		M197.145,207.598c3.529-3.49,6.936-6.862,10.35-10.24c20.613,18.181,24.757,53.579,3.044,77.385
		c-21.278,23.329-57.843,23.865-79.901,1.021c-22.23-23.021-19.564-58.889,1.922-78.345c3.449,3.424,6.893,6.839,10.333,10.253
		c-18.523,17.567-15.832,45.075,0.218,59.558c15.835,14.289,39.708,13.875,55.029-1.026
		C213.312,251.443,215.355,225.088,197.145,207.598z"/>
	<path fill-rule="evenodd" clip-rule="evenodd" fill="#FFFFFF" stroke="#000000" stroke-width="12" stroke-miterlimit="10" d="
		M170.156,160.021c5.689-5.774,10.96-11.123,16.086-16.325c3.46,3.396,6.881,6.75,10.551,10.35
		c-5.384,5.219-10.779,10.448-16.512,16.003c5.766,5.526,11.237,10.769,16.702,16.006c-3.857,3.783-7.285,7.147-10.899,10.691
		c-5.161-5.217-10.444-10.556-15.974-16.143c-5.418,5.599-10.69,11.042-15.849,16.373c-3.821-3.772-7.24-7.146-10.901-10.762
		c5.412-5.206,10.831-10.423,16.563-15.938c-5.821-5.582-11.286-10.822-16.703-16.015c3.889-3.823,7.305-7.18,10.717-10.533
		C159.109,148.925,164.412,154.252,170.156,160.021z"/>
</g>
</svg>
