<?xml version="1.0" encoding="UTF-8" standalone="no"?>
<!-- Created with Inkscape (http://www.inkscape.org/) -->

<svg
   xmlns:dc="http://purl.org/dc/elements/1.1/"
   xmlns:cc="http://creativecommons.org/ns#"
   xmlns:rdf="http://www.w3.org/1999/02/22-rdf-syntax-ns#"
   xmlns:svg="http://www.w3.org/2000/svg"
   xmlns="http://www.w3.org/2000/svg"
   xmlns:sodipodi="http://sodipodi.sourceforge.net/DTD/sodipodi-0.dtd"
   xmlns:inkscape="http://www.inkscape.org/namespaces/inkscape"
   width="256"
   height="256"
   viewBox="0 0 256 256.00001"
   id="svg2"
   version="1.1"
   inkscape:version="0.91 r13725"
   sodipodi:docname="8x-logo-var1.svg">
  <defs
     id="defs4" />
  <sodipodi:namedview
     id="base"
     pagecolor="#000000"
     bordercolor="#666666"
     borderopacity="1.0"
     inkscape:pageopacity="0"
     inkscape:pageshadow="2"
     inkscape:zoom="0.89804212"
     inkscape:cx="92.235846"
     inkscape:cy="100.11021"
     inkscape:document-units="px"
     inkscape:current-layer="layer1"
     showgrid="false"
     units="px"
     inkscape:snap-bbox="true"
     inkscape:bbox-nodes="true"
     inkscape:snap-page="true"
     inkscape:window-width="1440"
     inkscape:window-height="768"
     inkscape:window-x="0"
     inkscape:window-y="1"
     inkscape:window-maximized="1"
     inkscape:snap-global="false" />
  <metadata
     id="metadata7">
    <rdf:RDF>
      <cc:Work
         rdf:about="">
        <dc:format>image/svg+xml</dc:format>
        <dc:type
           rdf:resource="http://purl.org/dc/dcmitype/StillImage" />
        <dc:title />
      </cc:Work>
    </rdf:RDF>
  </metadata>
  <g
     inkscape:label="Ebene 1"
     inkscape:groupmode="layer"
     id="layer1"
     transform="translate(0,-796.36237)">
    <path
       style="opacity:1;fill:#ffffff;fill-opacity:1;stroke:none;stroke-width:3;stroke-linejoin:miter;stroke-miterlimit:4;stroke-dasharray:none;stroke-dashoffset:0;stroke-opacity:1"
       d="M 128 0 A 128 128 0 0 0 0 128 A 128 128 0 0 0 128 256 A 128 128 0 0 0 256 128 A 128 128 0 0 0 128 0 z M 71.185547 93.873047 C 79.873131 93.873047 87.112574 96.722599 92.904297 102.42383 C 98.696016 108.07981 101.5918 115.20565 101.5918 123.80273 C 101.5918 132.80705 97.769928 140.1601 90.123047 145.86133 C 94.331096 148.12371 97.633118 151.42769 100.03125 155.77148 C 102.47464 160.11528 103.69727 165.0019 103.69727 170.43164 C 103.69727 179.70745 100.66477 187.30886 94.601562 193.23633 C 88.538353 199.16379 80.779063 202.12695 71.322266 202.12695 C 61.63923 202.12695 53.65273 199.14068 47.363281 193.16797 C 41.028585 187.19526 37.861328 179.68433 37.861328 170.63477 C 37.861328 158.87033 42.590078 150.63546 52.046875 145.92969 C 44.354743 140.49995 40.507813 133.10263 40.507812 123.73633 C 40.507812 115.22973 43.426701 108.12505 49.263672 102.42383 C 55.14589 96.722599 62.452715 93.873047 71.185547 93.873047 z M 71.050781 108.19336 C 66.752237 108.19336 63.063181 109.73174 59.986328 112.80859 C 56.909475 115.88544 55.371094 119.50516 55.371094 123.66797 C 55.371094 128.1475 56.888317 131.90394 59.919922 134.93555 C 62.996775 138.01239 66.70699 139.55078 71.050781 139.55078 C 75.349326 139.55078 79.036429 138.01239 82.113281 134.93555 C 85.190134 131.85869 86.728516 128.16964 86.728516 123.87109 C 86.728516 119.57255 85.190134 115.88544 82.113281 112.80859 C 79.036429 109.73174 75.349326 108.19336 71.050781 108.19336 z M 114.72266 140.98242 L 131.08008 140.98242 L 144.32617 158.31641 L 157.81445 140.98242 L 174.66016 140.98242 L 152.6875 168.26562 L 178.13867 200.43164 L 161.78125 200.43164 L 144.32617 178.21484 L 126.44141 200.43164 L 109.6582 200.43164 L 136.08594 168.26562 L 114.72266 140.98242 z M 70.779297 152.85352 C 66.028275 152.85352 61.932976 154.54977 58.494141 157.94336 C 55.100553 161.33695 53.404297 165.38602 53.404297 170.0918 C 53.404297 174.93332 55.077442 179.096 58.425781 182.58008 C 61.819369 186.01892 65.937779 187.73828 70.779297 187.73828 C 75.575568 187.73828 79.670866 186.04202 83.064453 182.64844 C 86.45804 179.2096 88.154297 175.09119 88.154297 170.29492 C 88.154297 165.4534 86.45804 161.33695 83.064453 157.94336 C 79.670866 154.54977 75.575568 152.85352 70.779297 152.85352 z "
       transform="translate(0,796.36237)"
       id="path4136" />
    <g
       style="font-style:normal;font-variant:normal;font-weight:bold;font-stretch:normal;font-size:139.00134277px;line-height:125%;font-family:Futura;-inkscape-font-specification:'Futura Bold';letter-spacing:1.10157287px;word-spacing:0px;fill:#000000;fill-opacity:1;stroke:none;stroke-width:1px;stroke-linecap:butt;stroke-linejoin:miter;stroke-opacity:1"
       id="text4138" />
    <text
       xml:space="preserve"
       style="font-style:italic;font-variant:normal;font-weight:bold;font-stretch:normal;font-size:30px;line-height:125%;font-family:Zapfino;-inkscape-font-specification:'Zapfino Bold Italic';letter-spacing:5.63000011px;word-spacing:0px;fill:#000000;fill-opacity:1;stroke:none;stroke-width:1px;stroke-linecap:butt;stroke-linejoin:miter;stroke-opacity:1"
       x="-163.52563"
       y="566.85608"
       id="text4142"
       sodipodi:linespacing="125%"><tspan
         sodipodi:role="line"
         id="tspan4144"
         x="-163.52563"
         y="566.85608">X</tspan></text>
  </g>
  <g
     inkscape:groupmode="layer"
     id="layer3"
     inkscape:label="Ebene 2"
     style="display:none">
    <text
       xml:space="preserve"
       style="font-style:normal;font-variant:normal;font-weight:bold;font-stretch:normal;font-size:139.00134277px;line-height:125%;font-family:Futura;-inkscape-font-specification:'Futura Bold';letter-spacing:1.10157287px;word-spacing:0px;fill:#000000;fill-opacity:1;stroke:none;stroke-width:1px;stroke-linecap:butt;stroke-linejoin:miter;stroke-opacity:1"
       x="111.4116"
       y="313.9986"
       id="text4138-7"
       sodipodi:linespacing="125%"><tspan
         sodipodi:role="line"
         id="tspan4140-1"
         x="111.4116"
         y="313.9986"
         style="font-style:normal;font-variant:normal;font-weight:500;font-stretch:normal;font-family:Futura;-inkscape-font-specification:'Futura Medium';letter-spacing:-4.68754387px">8<tspan
   style="font-size:125px"
   id="tspan4166-1">x</tspan></tspan></text>
  </g>
</svg>
